Coordinates
version=1
nRows=9
nColumns=24
inDegrees=yes

Units are S.I. units (second, meters, Newtons, ...)
Angles are in degrees.

endheader
time	pelvis_tilt	pelvis_list	pelvis_rotation	pelvis_tx	pelvis_ty	pelvis_tz	hip_flexion_r	hip_adduction_r	hip_rotation_r	knee_angle_r	ankle_angle_r	subtalar_angle_r	mtp_angle_r	hip_flexion_l	hip_adduction_l	hip_rotation_l	knee_angle_l	ankle_angle_l	subtalar_angle_l	mtp_angle_l	lumbar_extension	lumbar_bending	lumbar_rotation
      7.66000000	      7.76674254	      4.49435511	      8.11879111	      0.58627275	      0.89815278	      0.23557197	     15.24092432	     -3.99179254	     -9.33220965	     -2.52332810	     11.82440825	      9.02634624	      0.00000000	    -32.96315149	      5.64104171	     15.70732598	     -2.81021849	      4.57642324	    -21.19831507	      0.00000000	    -19.09534836	     -3.18102080	    -17.62166897
      7.67000000	      8.13589373	      4.57898722	      8.32449821	      0.60157091	      0.89673527	      0.23537596	     15.39139883	     -4.20624008	    -10.09272783	     -5.36753211	     11.30176646	      8.56530479	      0.00000000	    -33.07221911	      5.47889000	     13.16390984	     -4.98281371	      6.53609828	    -16.43896139	      0.00000000	    -19.33011712	     -2.95848402	    -17.77490963
      7.68000000	      8.40538441	      4.65777004	      8.68567602	      0.61731057	      0.89538447	      0.23515044	     15.34371629	     -4.40749997	    -10.67523047	     -7.76219387	     10.51801866	      7.60558793	      0.00000000	    -32.93927211	      5.13662608	     10.62884623	     -7.33787806	      7.89790953	    -11.91891495	      0.00000000	    -19.38637546	     -2.72397158	    -17.99721228
      7.69000000	      8.47927148	      4.65784020	      9.17282808	      0.63337472	      0.89405088	      0.23494519	     15.32031244	     -4.52731537	    -11.24613756	     -9.80837755	      9.77270096	      6.42348548	      0.00000000	    -32.43304690	      4.58749744	      8.27053121	     -9.88729764	      8.55173795	     -7.94817107	      0.00000000	    -19.14447106	     -2.42018495	    -18.23079856
      7.70000000	      8.54737887	      4.50803509	      9.70998315	      0.64957531	      0.89300267	      0.23481053	     15.21041532	     -4.45426749	    -11.81141295	    -11.58638114	      9.27790266	      5.20271368	      0.00000000	    -31.76741439	      3.79488253	      6.22611649	    -12.55276642	      8.37558320	     -4.76280650	      0.00000000	    -18.84880787	     -1.93488592	    -18.38459046
      7.71000000	      8.56990580	      4.18905648	     10.19578590	      0.66573957	      0.89219960	      0.23481548	     15.19523642	     -4.17307561	    -12.30386020	    -13.29640624	      9.18505300	      4.09097796	      0.00000000	    -30.86950828	      2.84535640	      4.55588612	    -15.35060079	      7.33745110	     -2.47158033	      0.00000000	    -18.47110071	     -1.27103129	    -18.41199313
      7.72000000	      8.66378206	      3.69197652	     10.56401934	      0.68168482	      0.89177406	      0.23496759	     15.21069911	     -3.66049505	    -12.69229679	    -15.05395178	      9.58187979	      3.25753532	      0.00000000	    -29.82270009	      1.77087751	      3.18549783	    -18.31462643	      5.48578969	     -0.95871909	      0.00000000	    -18.18314745	     -0.39493070	    -18.29294348
      7.73000000	      8.84893858	      3.04697531	     10.79458505	      0.69729376	      0.89172131	      0.23523509	     15.24600718	     -2.95686798	    -12.98637800	    -16.92806703	     10.48805393	      2.80873676	      0.00000000	    -28.62202828	      0.62681205	      2.08896674	    -21.47945431	      2.89926684	     -0.08050672	      0.00000000	    -18.03972651	      0.66421360	    -18.05398443
      7.74000000	      9.11262390	      2.30147022	     10.91272150	      0.71247614	      0.89197851	      0.23557879	     15.26324094	     -2.12749085	    -13.24176287	    -18.88566147	     11.83693405	      2.80991299	      0.00000000	    -27.21817402	     -0.55666517	      1.19054964	    -24.91214382	     -0.22439852	      0.43141611	      0.00000000	    -18.05976408	      1.84625813	    -17.75629535
